<svg version="1.2" xmlns="http://www.w3.org/2000/svg" viewBox="0 0 198 140" width="198" height="140">
	<style>
		.s0 { fill: #f1ac44 } 
	</style>
	<path class="s0" d="m111.38 0.43c-8.43 1.18-14.61 3.46-28.38 10.36-8.26 4.13-18.35 8.6-22.53 9.86-6.84 2.02-8.76 2.28-21.28 2.28-13.02 0.08-14.1-0.09-19.36-2.2-3.09-1.26-7.01-3.2-8.76-4.46l-3.17-2.11-0.34 1.86c-0.41 2.95 1.51 10.7 3.84 15.33 2.92 5.81 10.18 13.31 16.03 16.43 12.85 6.91 26.2 6.74 39.13-0.34 2.84-1.6 5.18-2.61 5.18-2.19 0 1.43-6.76 9.44-9.93 11.71-1.75 1.27-4.68 3.03-6.59 3.88-2.84 1.35-3.59 2.1-4.01 4.55-0.5 2.69 0 11.2 1 17.86l0.5 3.03-6.26 3.12c-9.26 4.72-18.36 6.74-27.79 6.32-6.67-0.26-8.43-0.68-13.52-3.29-5.67-2.78-5.84-2.86-4.34-0.76 2.84 4.05 12.19 12.47 17.95 16.18 7.84 5.14 15.35 8 25.2 9.69 7.26 1.26 10.18 1.26 26.12 0.42 19.86-1.18 25.7-0.68 33.21 2.78 2.34 1.09 4.34 2.19 4.34 2.44 0 0.17-2.83 0.42-6.34 0.42-6.34 0-19.53 2.95-19.53 4.38 0 1.35 15.44 8.34 22.53 10.2 9.6 2.44 23.45 2.44 32.97-0.09 28.21-7.49 48.4-30.49 52.24-59.39 0.83-6.83 0.67-13.9-0.67-22.66l-0.5-3.12h-39.05l-39.14 17.21v0.06 0.06l40.97 17.21-1.5 2.61c-2.34 4.05-8.43 9.18-14.44 12.05-5.09 2.44-6.09 2.61-14.6 2.61-8.26 0-9.68-0.25-14.02-2.27-6.26-2.95-10.6-6.49-14.19-11.46-10.1-14.07-9.01-32.61 2.76-45.16 10.84-11.63 28.2-14.66 41.64-7.24l4.5 2.52h21.28c24.04 0 22.29 0.76 17.45-7.41-12.19-20.56-36.14-34.12-59.42-33.7-3.67 0-7.76 0.25-9.18 0.42z"/>
</svg>